<svg width="337" height="276" viewBox="0 0 337 276" fill="none" xmlns="http://www.w3.org/2000/svg">
<g clip-path="url(#clip0_1_59)">
<path d="M83.1812 251.842L83.8667 266.273L83.8667 266.273C83.9823 268.712 83.1232 271.097 81.4784 272.903C79.8336 274.71 77.5377 275.79 75.0958 275.905L74.7966 275.92L73.6744 252.292L83.1812 251.842Z" fill="#2F2E41"/>
<path d="M288.597 227.455C281.716 240.868 272.988 253.839 261.944 265.58C261.699 265.845 261.451 266.103 261.202 266.366L235.036 253.994C235.196 253.729 235.372 253.431 235.561 253.105C246.8 233.897 314.648 116.732 312.504 90.1952C312.754 92.3838 320.796 164.763 288.597 227.455Z" fill="#E6E6E6"/>
<path d="M266.992 267.967C266.626 268.175 266.251 268.378 265.873 268.575L246.244 259.294C246.518 259.099 246.838 258.869 247.206 258.611C253.219 254.298 271.101 241.36 288.597 227.455C307.4 212.512 325.763 196.457 328.49 188.793C327.936 190.551 310.726 243.97 266.992 267.967Z" fill="#E6E6E6"/>
<path d="M32.651 275.343C49.3809 275.343 62.9432 261.797 62.9432 245.088C62.9432 228.378 49.3809 214.832 32.651 214.832C15.9212 214.832 2.3589 228.378 2.3589 245.088C2.3589 261.797 15.9212 275.343 32.651 275.343Z" fill="#023E8A"/>
<path d="M44.7851 232.391H20.517C19.4447 232.393 18.4166 232.819 17.6583 233.576C16.9001 234.333 16.4735 235.36 16.4723 236.431V253.744C16.4735 254.816 16.9001 255.842 17.6583 256.6C18.4166 257.357 19.4447 257.783 20.517 257.784H44.7851C45.8574 257.783 46.8855 257.357 47.6438 256.6C48.4021 255.842 48.8286 254.816 48.8298 253.744V236.431C48.8286 235.36 48.402 234.333 47.6438 233.576C46.8855 232.819 45.8574 232.393 44.7851 232.391ZM44.7851 234.7C44.9299 234.7 45.0742 234.719 45.2144 234.756L32.6538 244.763L20.1668 234.735C20.282 234.712 20.3993 234.7 20.517 234.7H44.7851ZM44.7851 255.476H20.517C20.0574 255.475 19.6168 255.293 19.2919 254.968C18.9669 254.644 18.7841 254.203 18.7836 253.744V236.587L31.927 247.142C32.1316 247.306 32.3862 247.396 32.6488 247.396C32.9115 247.397 33.1664 247.308 33.3717 247.144L46.5185 236.67V253.744C46.518 254.203 46.3352 254.644 46.0102 254.968C45.6853 255.293 45.2446 255.475 44.7851 255.476Z" fill="white"/>
<path d="M149.555 201.407L156.333 201.463C157.019 201.468 157.698 201.324 158.322 201.041C158.947 200.758 159.502 200.342 159.949 199.822C160.396 199.303 160.724 198.692 160.91 198.033C161.097 197.373 161.137 196.682 161.028 196.005C160.911 195.277 160.624 194.587 160.191 193.99C159.758 193.393 159.191 192.906 158.535 192.567C157.879 192.229 157.153 192.05 156.415 192.043C155.677 192.036 154.947 192.203 154.285 192.529L147.894 195.679L126.032 200.549L116.665 190.984L111.286 199.835L123.924 209.587L149.555 201.407Z" fill="#FFB8B8"/>
<path d="M148.285 271.349L140.3 272.883C134.845 255.71 128.935 239.447 128.935 226.868C121.216 235.449 111.644 240.358 100.372 241.9L101.6 222.88L110.814 217.972L124.916 211.471C126.151 210.902 127.483 210.573 128.841 210.502C131.481 210.363 134.079 211.205 136.135 212.864C138.192 214.524 139.56 216.885 139.978 219.493L148.285 271.349Z" fill="#2F2E41"/>
<path d="M110.046 239.599L106.864 242.015C105.495 243.054 103.878 243.717 102.174 243.939C100.469 244.161 98.7362 243.934 97.1467 243.28C88.0305 236.455 81.554 238.469 75.6841 248.77C68.6434 240.834 66.9064 229.371 73.19 217.512L108.05 218.279L115.114 216.132L110.046 239.599Z" fill="#2F2E41"/>
<path d="M98.4368 275.141C96.4393 275.755 94.2892 275.647 92.3632 274.837C90.4373 274.026 88.8582 272.565 87.9028 270.708C84.77 267.952 82.1266 264.007 79.834 259.208C78.189 255.688 76.7765 252.065 75.6055 248.36C74.0191 243.467 76.6718 238.12 81.6089 236.656C81.7558 236.612 81.9044 236.571 82.0548 236.533C88.6457 234.843 95.4141 238.64 97.667 245.053L104.218 263.701C104.605 264.802 104.771 265.969 104.707 267.135C104.642 268.301 104.348 269.442 103.842 270.495C103.336 271.547 102.627 272.489 101.756 273.268C100.885 274.047 99.8691 274.646 98.7661 275.033C98.6571 275.071 98.5473 275.107 98.4368 275.141Z" fill="#2F2E41"/>
<path opacity="0.2" d="M78.7184 257.085C78.7184 257.085 86.3969 265.674 87.9325 270.582L78.7184 257.085Z" fill="black"/>
<path d="M48.9385 216.548L46.3686 222.812C46.1086 223.446 45.9901 224.129 46.0215 224.813C46.0529 225.498 46.2333 226.167 46.5502 226.775C46.8671 227.382 47.3129 227.913 47.8565 228.331C48.4 228.749 49.0283 229.043 49.6974 229.193C50.4176 229.355 51.1657 229.346 51.8816 229.166C52.5974 228.986 53.2611 228.641 53.8191 228.159C54.3771 227.676 54.8139 227.069 55.0943 226.387C55.3747 225.705 55.491 224.967 55.4336 224.232L54.8799 217.135L58.4755 195.053L70.8455 189.921L64.6176 181.644L50.8564 189.741L48.9385 216.548Z" fill="#FFB8B8"/>
<path d="M110.354 217.512C101.529 232.317 83.9363 238.05 68.8684 226.457C71.519 217.758 80.0766 193.718 74.5482 192.798C62.81 197.714 62.7929 186.171 60.5973 180.393L87.3183 170.577L101.754 174.565L104.713 175.614C106.639 176.296 108.309 177.551 109.499 179.21C110.689 180.869 111.342 182.852 111.37 184.893C105.307 193.643 100.818 202.977 110.354 217.512Z" fill="#023E8A"/>
<path d="M113.732 205.548L103.136 196.805L106.668 176.406L121.103 191.744L113.732 205.548Z" fill="#023E8A"/>
<path d="M289.557 65.4065H288.042V23.9774C288.042 17.6182 285.513 11.5195 281.011 7.02282C276.509 2.52618 270.402 0 264.036 0H176.155C169.788 0 163.682 2.52618 159.18 7.02282C154.678 11.5195 152.149 17.6182 152.149 23.9774V251.261C152.149 257.62 154.678 263.719 159.18 268.216C163.682 272.712 169.788 275.239 176.155 275.239H264.035C270.402 275.239 276.508 272.712 281.01 268.216C285.512 263.719 288.042 257.62 288.042 251.261V94.8964H289.556L289.557 65.4065Z" fill="#3F3D56"/>
<path d="M265.004 6.23753H253.533C254.061 7.52939 254.262 8.93108 254.12 10.3191C253.977 11.7071 253.495 13.0388 252.716 14.1969C251.937 15.355 250.885 16.3039 249.652 16.96C248.419 17.6161 247.043 17.9592 245.646 17.9592H195.301C193.904 17.9591 192.529 17.6159 191.296 16.9598C190.064 16.3038 189.011 15.355 188.232 14.1971C187.453 13.0391 186.971 11.7076 186.829 10.3198C186.686 8.93198 186.887 7.53044 187.415 6.23867H176.699C171.944 6.23867 167.384 8.12525 164.022 11.4834C160.66 14.8416 158.771 19.3962 158.771 24.1453V251.094C158.771 255.844 160.66 260.398 164.022 263.756C167.384 267.114 171.944 269.001 176.699 269.001H265.001C269.756 269.001 274.316 267.114 277.678 263.756C281.04 260.398 282.929 255.844 282.929 251.094V24.1442C282.929 19.395 281.04 14.8404 277.678 11.4823C274.316 8.12411 269.756 6.23752 265.001 6.23752L265.004 6.23753Z" fill="white"/>
<path d="M221.003 256.318C226.44 256.318 230.848 251.916 230.848 246.485C230.848 241.055 226.44 236.652 221.003 236.652C215.566 236.652 211.158 241.055 211.158 246.485C211.158 251.916 215.566 256.318 221.003 256.318Z" fill="#E6E6E6"/>
<path d="M181.064 155.55C180.134 155.55 179.377 156.413 179.377 157.474C179.377 158.535 180.134 159.398 181.064 159.398H260.635C261.566 159.398 262.323 158.535 262.323 157.474C262.323 156.413 261.566 155.55 260.635 155.55H181.064Z" fill="#E6E6E6"/>
<path d="M181.064 200.933C180.134 200.933 179.377 201.796 179.377 202.857C179.377 203.918 180.134 204.781 181.064 204.781H260.635C261.566 204.781 262.323 203.918 262.323 202.857C262.323 201.796 261.566 200.933 260.635 200.933H181.064Z" fill="#E6E6E6"/>
<path d="M181.064 167.095C180.134 167.095 179.377 167.958 179.377 169.019C179.377 170.08 180.134 170.943 181.064 170.943H215.304C216.235 170.943 216.992 170.08 216.992 169.019C216.992 167.958 216.235 167.095 215.304 167.095H181.064Z" fill="#E6E6E6"/>
<path d="M181.064 178.1C180.134 178.1 179.377 178.963 179.377 180.024C179.377 181.085 180.134 181.948 181.064 181.948H260.635C261.566 181.948 262.323 181.085 262.323 180.024C262.323 178.963 261.566 178.1 260.635 178.1H181.064Z" fill="#E6E6E6"/>
<path d="M181.064 189.645C180.134 189.645 179.377 190.508 179.377 191.569C179.377 192.63 180.134 193.493 181.064 193.493H215.304C216.235 193.493 216.992 192.63 216.992 191.569C216.992 190.508 216.235 189.645 215.304 189.645H181.064Z" fill="#E6E6E6"/>
<path d="M196.086 67.9336H245.619C246.166 67.9343 246.69 68.1517 247.077 68.5381C247.464 68.9245 247.682 69.4485 247.683 69.995V121.519C247.682 122.065 247.464 122.589 247.077 122.976C246.69 123.362 246.166 123.579 245.619 123.58H196.086C195.539 123.579 195.014 123.362 194.627 122.976C194.24 122.589 194.023 122.065 194.022 121.519V69.995C194.023 69.4485 194.24 68.9245 194.627 68.5381C195.014 68.1517 195.539 67.9343 196.086 67.9336Z" fill="#023E8A"/>
<path d="M108.319 167.906H82.1349C81.5963 167.906 81.08 167.692 80.6991 167.311C80.3183 166.931 80.1041 166.415 80.1034 165.877V154.605C80.1034 150.599 81.6968 146.757 84.533 143.924C87.3691 141.091 91.2158 139.5 95.2268 139.5C99.2378 139.5 103.084 141.091 105.921 143.924C108.757 146.757 110.35 150.599 110.35 154.605V165.877C110.35 166.415 110.135 166.931 109.754 167.311C109.374 167.692 108.857 167.906 108.319 167.906Z" fill="#2F2E41"/>
<path d="M107.847 161.465C110.784 156.098 108.809 149.369 103.436 146.435C98.0628 143.502 91.3258 145.474 88.3885 150.841C85.4512 156.207 87.426 162.936 92.7992 165.87C98.1725 168.804 104.909 166.831 107.847 161.465Z" fill="#FFB6B6"/>
<path d="M113.928 155.732H97.9173L97.753 153.436L96.9321 155.732H94.4668L94.1415 151.182L92.5145 155.732H87.7442V155.507C87.7478 152.339 89.0093 149.302 91.2521 147.061C93.4948 144.821 96.5356 143.561 99.7074 143.558H101.965C105.136 143.561 108.177 144.821 110.42 147.061C112.663 149.301 113.924 152.339 113.928 155.507V155.732Z" fill="#2F2E41"/>
<path d="M97.7862 170.01C97.6657 170.01 97.5454 170 97.4267 169.979L85.703 167.913V148.56H98.6085L98.289 148.932C93.8436 154.111 97.1927 162.507 99.5847 167.051C99.761 167.384 99.8396 167.76 99.8115 168.135C99.7834 168.511 99.6496 168.871 99.4257 169.174C99.2381 169.433 98.9917 169.644 98.7067 169.789C98.4217 169.935 98.1063 170.01 97.7862 170.01Z" fill="#2F2E41"/>
<path d="M136.819 265.557L151.284 265.557H151.284C153.729 265.557 156.073 266.527 157.802 268.253C159.531 269.98 160.502 272.322 160.502 274.763V275.062L136.82 275.063L136.819 265.557Z" fill="#2F2E41"/>
<path d="M336.621 276H0.378652C0.278227 276 0.181915 275.96 0.110904 275.889C0.0398933 275.818 0 275.722 0 275.622C0 275.522 0.0398933 275.425 0.110904 275.354C0.181915 275.283 0.278227 275.244 0.378652 275.244H336.621C336.722 275.244 336.818 275.283 336.889 275.354C336.96 275.425 337 275.522 337 275.622C337 275.722 336.96 275.818 336.889 275.889C336.818 275.96 336.722 276 336.621 276Z" fill="#CACACA"/>
<rect x="195" y="69" width="52" height="54" rx="3" stroke="white" stroke-width="2"/>
<path d="M202 76H222" stroke="white" stroke-width="4" stroke-linecap="round"/>
<path d="M202 82H222" stroke="white" stroke-width="4" stroke-linecap="round"/>
<path d="M212 96H242" stroke="white" stroke-width="4" stroke-linecap="round"/>
<path d="M202 104L242 104" stroke="white" stroke-width="4" stroke-linecap="round"/>
<path d="M201 113L241 113" stroke="white" stroke-width="4" stroke-linecap="round"/>
</g>
<defs>
<clipPath id="clip0_1_59">
<rect width="337" height="276" fill="white"/>
</clipPath>
</defs>
</svg>
